<?xml version="1.0" standalone="no"?>
<!DOCTYPE svg PUBLIC "-//W3C//DTD SVG 20010904//EN"
 "http://www.w3.org/TR/2001/REC-SVG-20010904/DTD/svg10.dtd">
<svg version="1.0" xmlns="http://www.w3.org/2000/svg"
 width="298.000000pt" height="298.000000pt" viewBox="0 0 298.000000 298.000000"
 preserveAspectRatio="xMidYMid meet">
<metadata>
Created by potrace 1.14, written by Peter Selinger 2001-2017
</metadata>
<g transform="translate(0.000000,298.000000) scale(0.100000,-0.100000)"
fill="#000000" stroke="none">
<path d="M0 2490 l0 -491 503 2 502 2 6 -39 c9 -52 35 -160 49 -204 6 -19 15
-57 19 -85 5 -27 25 -106 46 -175 33 -107 46 -134 89 -187 38 -48 56 -63 76
-63 14 0 51 -9 83 -20 70 -25 95 -26 77 -5 -10 12 -9 15 6 16 18 0 18 1 -1 9
-18 8 -17 9 7 9 31 1 47 -17 27 -31 -11 -7 -9 -8 6 -6 28 4 45 -9 45 -35 0
-12 18 -42 40 -67 22 -25 40 -50 40 -57 0 -33 19 -16 40 35 25 61 97 179 121
199 12 10 21 3 51 -37 36 -49 36 -49 22 -91 -11 -31 -42 -69 -113 -139 -109
-107 -157 -186 -168 -278 -3 -28 -9 -52 -13 -52 -14 0 -30 62 -30 118 0 60
-28 119 -102 218 -21 28 -38 56 -38 62 0 6 26 14 58 18 l57 7 -39 17 c-26 10
-36 19 -28 24 20 12 13 26 -13 26 -13 0 -46 8 -72 18 -48 18 -88 19 -78 1 4
-5 -5 -9 -19 -9 -29 0 -44 17 -19 22 15 3 14 7 -9 22 -27 17 -27 17 -95 -23
-60 -35 -161 -71 -201 -71 -10 0 -12 39 -9 206 l4 206 -31 -6 c-78 -15 -142
-37 -157 -55 -9 -11 -19 -18 -22 -15 -6 6 -32 -38 -28 -46 1 -3 -12 -9 -31
-13 -136 -34 -229 -82 -284 -147 -12 -14 -34 -38 -48 -53 -14 -15 -26 -35 -26
-44 0 -9 -8 -35 -19 -57 -10 -23 -24 -67 -32 -100 -7 -32 -18 -60 -25 -63 -6
-2 -15 -30 -19 -61 -4 -31 -9 -65 -12 -77 -3 -11 -8 -54 -12 -95 -3 -41 -10
-81 -14 -87 -4 -7 -15 -68 -23 -135 -8 -68 -19 -157 -24 -198 -6 -41 -12 -106
-15 -145 -3 -38 -7 -91 -10 -117 l-4 -48 1400 0 1401 0 -5 68 c-2 37 -8 78
-12 91 -6 17 -5 22 3 17 8 -5 10 -2 6 8 -3 9 -11 16 -16 16 -6 0 -7 11 -4 25
4 14 3 25 -1 25 -5 0 -9 11 -9 24 -1 13 -11 44 -22 68 -27 58 -44 114 -53 168
-4 25 -15 74 -23 110 -9 36 -21 90 -27 120 -6 30 -15 64 -20 75 -5 11 -13 42
-19 69 -6 27 -18 63 -27 80 -30 59 -33 66 -33 87 0 11 -16 55 -36 97 -19 42
-39 86 -44 97 -32 82 -93 194 -102 189 -6 -4 -9 -1 -6 7 12 37 -87 80 -194 82
-47 1 -68 6 -68 15 0 6 -4 12 -10 12 -13 0 -1 -30 27 -64 19 -23 21 -31 11
-38 -32 -20 -148 -49 -199 -49 -55 0 -57 -1 -63 -30 -9 -47 -46 -121 -58 -117
-6 2 -26 32 -45 67 -29 56 -33 71 -32 139 0 43 3 97 7 122 8 48 -8 187 -20
175 -7 -8 -2 71 7 116 4 17 26 39 70 68 69 45 76 55 48 70 -10 5 -40 50 -67
100 -27 49 -63 104 -80 122 -35 36 -130 83 -191 93 -58 11 -120 32 -205 73
-157 74 -251 106 -320 107 -60 1 -65 -1 -77 -25 -7 -14 -18 -55 -25 -90 -12
-58 -15 -64 -40 -67 -39 -5 -62 11 -98 67 -28 43 -35 48 -51 38 -21 -13 -36
-3 -22 15 6 7 14 24 18 38 10 34 75 100 99 100 11 0 48 5 84 11 l64 11 24 52
c13 28 24 59 24 68 0 10 20 42 45 72 25 31 45 62 45 69 0 7 15 27 33 45 31 30
36 31 168 43 151 13 154 12 371 -75 135 -53 221 -135 260 -244 19 -54 20 -65
8 -223 l-13 -165 39 -55 c21 -30 55 -75 76 -100 21 -25 38 -52 38 -61 0 -25
75 -29 477 -27 l373 2 0 488 0 489 -1490 0 -1490 0 0 -490z m1313 -149 c15 -6
27 -15 27 -21 0 -5 10 -10 23 -10 14 0 18 -3 9 -8 -18 -12 -172 -15 -172 -3 0
6 6 14 14 18 14 8 16 12 16 34 0 12 35 8 83 -10z m-143 -25 c0 -3 -4 -8 -10
-11 -5 -3 -10 -1 -10 4 0 6 5 11 10 11 6 0 10 -2 10 -4z m-6 -244 c-5 -30 -2
-41 15 -56 40 -37 21 -63 -52 -71 -43 -4 -56 45 -22 85 7 8 20 30 29 48 22 44
38 41 30 -6z m83 -128 c-9 -9 -28 6 -21 18 4 6 10 6 17 -1 6 -6 8 -13 4 -17z
m-722 -594 c-3 -5 -11 -10 -16 -10 -6 0 -7 5 -4 10 3 6 11 10 16 10 6 0 7 -4
4 -10z m1155 -80 c0 -13 -7 -20 -20 -20 -18 0 -19 3 -10 20 6 11 15 20 20 20
6 0 10 -9 10 -20z m-76 -131 c-3 -5 -10 -7 -15 -3 -5 3 -7 10 -3 15 3 5 10 7
15 3 5 -3 7 -10 3 -15z"/>
<path d="M2060 1980 c0 -5 7 -10 15 -10 8 0 15 5 15 10 0 6 -7 10 -15 10 -8 0
-15 -4 -15 -10z"/>
<path d="M2030 1658 c0 -11 47 -10 55 1 3 5 -8 9 -25 9 -16 -1 -30 -5 -30 -10z"/>
<path d="M1660 1010 c0 -6 7 -10 15 -10 8 0 15 2 15 4 0 2 -7 6 -15 10 -8 3
-15 1 -15 -4z"/>
</g>
</svg>
